<svg xmlns="http://www.w3.org/2000/svg" id="Layer_1" data-name="Layer 1" viewBox="0 0 792 612"><defs fill="#000000"><style>.cls-1{isolation:isolate;font-size:70px;font-family:ArbescoDT-ExtraBold, Arbesco DT;font-weight:800;}.cls-1,.cls-3{fill:#000000;}.cls-2{fill:none;stroke:#000000;stroke-miterlimit:10;stroke-width:11px;}</style></defs><text class="cls-1" transform="translate(270.35 449.13)" fill="#000000">ZESCO</text><circle class="cls-2" cx="396" cy="306" r="228.35" fill="#000000"/><polyline class="cls-3" points="367.7 338.79 427.12 320.51 392.12 390.28 367.7 338.07" fill="#000000"/><polygon class="cls-3" points="392.84 156.18 360.36 220.06 418.1 202.01 392.84 156.18" fill="#000000"/><path class="cls-3" d="M400.51,297.29l38.25-51.07,12.45,28.51h0l-10,20.48Z" fill="#000000"/><polygon class="cls-3" points="333.74 271.76 344.75 249.92 383.19 245.68 345.56 295.94 333.74 271.76" fill="#000000"/><polygon class="cls-3" points="315.25 245.68 453.47 197.5 326.44 335.9 396.45 238.83 315.25 245.68" fill="#000000"/><polygon class="cls-3" points="328.06 341.68 459.06 203.46 389.23 305.95 477.83 297.29 328.06 341.68" fill="#000000"/><path class="cls-2" d="M450.47,117A197,197,0,0,1,572,394.62" fill="#000000"/><path class="cls-2" d="M220,394.62A197,197,0,0,1,333.74,119.43" fill="#000000"/></svg>